<?xml version="1.0" encoding="UTF-8" standalone="no"?>
<svg
   width="16"
   height="16"
   fill="currentColor"
   class="bi bi-superscript"
   viewBox="0 0 16 16"
   version="1.1"
   id="svg4"
   sodipodi:docname="text-background-color.svg"
   inkscape:version="1.2.2 (b0a8486541, 2022-12-01)"
   xml:space="preserve"
   xmlns:inkscape="http://www.inkscape.org/namespaces/inkscape"
   xmlns:sodipodi="http://sodipodi.sourceforge.net/DTD/sodipodi-0.dtd"
   xmlns="http://www.w3.org/2000/svg"
   xmlns:svg="http://www.w3.org/2000/svg"><defs
     id="defs8" /><sodipodi:namedview
     id="namedview6"
     pagecolor="#ffffff"
     bordercolor="#000000"
     borderopacity="0.25"
     inkscape:showpageshadow="2"
     inkscape:pageopacity="0.0"
     inkscape:pagecheckerboard="0"
     inkscape:deskcolor="#d1d1d1"
     showgrid="false"
     inkscape:zoom="18.605747"
     inkscape:cx="7.8739112"
     inkscape:cy="4.3266202"
     inkscape:window-width="2560"
     inkscape:window-height="1011"
     inkscape:window-x="0"
     inkscape:window-y="32"
     inkscape:window-maximized="1"
     inkscape:current-layer="svg4"
     showguides="true" /><path
     id="path2"
     d="M 12.865234 1.0078125 C 12.764539 1.0128235 12.666921 1.0443912 12.574219 1.1054688 C 12.534599 1.1315687 12.111962 1.5471916 11.410156 2.25 C 10.204129 3.4577522 10.266014 3.3893109 10.255859 3.53125 C 10.249259 3.6234659 10.267586 3.6960767 10.316406 3.7714844 C 10.363406 3.8440863 10.420238 3.8845816 10.511719 3.9140625 C 10.571009 3.9331685 10.60924 3.936034 10.833984 3.9375 C 11.033073 3.93879 11.09602 3.9428581 11.123047 3.9550781 C 11.142147 3.9637181 11.484743 4.2946974 11.886719 4.6933594 C 12.653473 5.4537944 12.674821 5.4726629 12.814453 5.5175781 C 12.916441 5.5503851 13.101698 5.5552627 13.205078 5.5273438 C 13.370112 5.4827758 13.366601 5.4863386 13.974609 4.8808594 C 14.397107 4.4601195 14.542892 4.3092437 14.572266 4.2597656 C 14.628716 4.1646867 14.653806 4.0726671 14.660156 3.9472656 C 14.666856 3.8152796 14.646517 3.7127068 14.591797 3.6015625 C 14.556733 3.5303416 14.516795 3.4854831 14.048828 3.0136719 C 13.770584 2.7331435 13.475849 2.4363446 13.394531 2.3535156 L 13.248047 2.203125 L 13.34375 2.1015625 C 13.486475 1.9507548 13.546875 1.8152158 13.546875 1.6542969 C 13.546875 1.4254746 13.39215 1.1843236 13.173828 1.0761719 C 13.070251 1.0248621 12.96593 1.0028015 12.865234 1.0078125 z M 12.892578 1.4648438 C 12.944664 1.4571898 12.99286 1.4773853 13.037109 1.5253906 C 13.119359 1.6146235 13.10908 1.6929589 13 1.8085938 L 12.929688 1.8828125 L 12.837891 1.7988281 C 12.78745 1.7525883 12.727457 1.6950152 12.705078 1.671875 L 12.664062 1.6308594 L 12.720703 1.5722656 C 12.782833 1.5086279 12.840492 1.4724977 12.892578 1.4648438 z M 6.3808594 3 L 3 12.496094 L 4.265625 12.496094 L 5.2265625 9.6425781 L 8.7597656 9.6425781 L 9.7207031 12.496094 L 11 12.496094 L 7.6191406 3 L 6.3808594 3 z M 11.970703 4.1347656 L 13.027344 4.1347656 L 14.083984 4.1347656 L 13.617188 4.6035156 C 13.259948 4.9607553 13.13945 5.0740447 13.107422 5.0859375 C 13.057822 5.1043545 12.969967 5.0996109 12.925781 5.0761719 C 12.909053 5.0672956 12.685819 4.8522404 12.431641 4.5976562 L 11.970703 4.1347656 z M 10.515625 4.3730469 C 10.461547 4.3780482 10.406835 4.4021314 10.375 4.4355469 C 10.29282 4.5218068 10.142651 4.7856489 10.103516 4.9140625 C 10.037876 5.1294334 10.141934 5.3587511 10.347656 5.4550781 C 10.441276 5.4989161 10.575059 5.5071023 10.673828 5.4746094 C 10.827894 5.4239274 10.937724 5.2995777 10.976562 5.1347656 C 11.008862 4.9977171 10.95266 4.829411 10.78125 4.5546875 C 10.70586 4.433855 10.649518 4.3871707 10.568359 4.375 C 10.551304 4.3724425 10.533651 4.3713798 10.515625 4.3730469 z M 6.9785156 4.4335938 L 7.0136719 4.4335938 L 8.4335938 8.6621094 L 5.5527344 8.6621094 L 6.9785156 4.4335938 z " /></svg>
